<svg width="108" height="52" viewBox="0 0 108 52" fill="none" xmlns="http://www.w3.org/2000/svg">
<rect x="0.0514221" y="27.2314" width="105" height="25" rx="12.5" transform="rotate(-15 0.0514221 27.2314)" fill="#E41F1F"/>
<path d="M19.8966 38.0229L20.7249 41.1139L19.303 41.4949L18.8475 39.7948L12.9438 41.3768L13.3993 43.0768L11.9774 43.4578L11.1492 40.3668L12.1383 40.1018C12.189 39.4256 11.9797 38.2117 11.5104 36.4602L10.765 33.6783L17.117 31.9763L18.8148 38.3128L19.8966 38.0229ZM17.3549 38.7371L16.0132 33.7298L12.5976 34.645L12.9662 36.0204C13.3803 37.5659 13.5862 38.8083 13.5839 39.7476L17.3549 38.7371ZM25.1277 38.2777C24.3653 38.482 23.6229 38.4932 22.9005 38.3113C22.1754 38.1191 21.5511 37.7674 21.0276 37.2561C20.5013 36.7345 20.1388 36.1028 19.94 35.361C19.7413 34.6192 19.7407 33.896 19.9385 33.1915C20.1334 32.4767 20.4982 31.8599 21.0329 31.3412C21.5647 30.8122 22.2119 30.4455 22.9743 30.2412C23.7265 30.0397 24.4599 30.0364 25.1748 30.2314C25.8971 30.4133 26.5214 30.765 27.0477 31.2866C27.5712 31.7978 27.9323 32.4244 28.1311 33.1662C28.3299 33.908 28.3318 34.6364 28.1368 35.3512C27.9391 36.0557 27.5743 36.6725 27.0424 37.2015C26.5181 37.7174 25.8798 38.0762 25.1277 38.2777ZM24.7633 36.9177C25.2372 36.7907 25.6396 36.5614 25.9704 36.2298C26.2984 35.888 26.5219 35.4857 26.6409 35.0232C26.7572 34.5503 26.749 34.0666 26.6165 33.572C26.484 33.0775 26.2506 32.6597 25.9162 32.3186C25.5791 31.9672 25.1845 31.7306 24.7322 31.6088C24.2772 31.4768 23.8127 31.4742 23.3387 31.6012C22.8545 31.731 22.4432 31.9682 22.1049 32.3128C21.7741 32.6444 21.5506 33.0466 21.4343 33.5195C21.3153 33.9821 21.3221 34.4606 21.4546 34.9552C21.5871 35.4497 21.8219 35.8727 22.159 36.2241C22.4934 36.5652 22.888 36.8018 23.3431 36.9338C23.8056 37.0528 24.279 37.0474 24.7633 36.9177ZM37.8923 34.6918L36.4241 35.0852L34.7262 28.7487L30.708 29.8254L32.4058 36.1619L30.9376 36.5553L28.8671 28.8279L35.8217 26.9644L37.8923 34.6918ZM41.4605 31.9136L41.916 33.6137L40.216 34.0692L39.7604 32.3692L41.4605 31.9136ZM54.0835 22.0712L52.3298 33.6392L50.738 34.0658L51.2176 30.9722L45.4134 24.3943L47.1598 23.9264L51.5721 29.2042L52.4608 22.506L54.0835 22.0712ZM55.5133 25.8292C55.3145 25.0873 55.314 24.3642 55.5117 23.6597C55.7067 22.9448 56.0715 22.3281 56.6061 21.8094C57.138 21.2803 57.7851 20.9137 58.5476 20.7094C59.4027 20.4803 60.238 20.527 61.0532 20.8497C61.8761 21.1592 62.5033 21.6869 62.9351 22.4325L61.3277 22.8632C61.0422 22.498 60.6719 22.2494 60.2168 22.1173C59.7694 21.9722 59.3087 21.9631 58.8347 22.0901C58.3505 22.2199 57.9495 22.4543 57.6318 22.7934C57.3113 23.1223 57.0981 23.5217 56.9921 23.9918C56.8834 24.4516 56.8953 24.9288 57.0278 25.4234C57.1604 25.9179 57.39 26.3423 57.7168 26.6964C58.0408 27.0403 58.4252 27.2796 58.8699 27.4144C59.3119 27.5389 59.775 27.5363 60.2592 27.4066C60.7332 27.2796 61.129 27.0465 61.4468 26.7074C61.772 26.3552 61.967 25.9496 62.0317 25.4905L63.639 25.0599C63.638 25.9215 63.36 26.6972 62.8049 27.387C62.2574 28.0638 61.5561 28.5168 60.7009 28.7459C59.9385 28.9502 59.1961 28.9614 58.4737 28.7795C57.7486 28.5873 57.1243 28.2355 56.6008 27.7243C56.0746 27.2027 55.712 26.571 55.5133 25.8292ZM72.6985 25.3821L71.2303 25.7755L69.5283 19.4236L66.221 20.3098L66.5978 21.7161C66.8932 22.8186 67.073 23.7367 67.137 24.4704C67.2114 25.2014 67.1198 25.8278 66.8621 26.3496C66.6016 26.8611 66.1056 27.2149 65.374 27.4109C65.1783 27.4634 64.9602 27.4942 64.7197 27.5034L64.3553 26.1434C64.549 26.1246 64.718 26.0959 64.8622 26.0573C65.1919 25.9689 65.4116 25.7996 65.5212 25.5494C65.6412 25.2964 65.6668 24.8975 65.5981 24.3527C65.5267 23.7976 65.353 23.0049 65.0769 21.9746L64.3646 19.3164L70.6238 17.6392L72.6985 25.3821ZM80.3899 15.0224L78.6362 26.5905L77.0444 27.017L77.524 23.9234L71.7198 17.3456L73.4662 16.8776L77.8785 22.1554L78.7672 15.4572L80.3899 15.0224ZM87.5636 14.591L83.6226 15.647L85.3205 21.9835L83.8523 22.3769L81.7817 14.6495L87.1909 13.2001L87.5636 14.591ZM95.394 11.0021L97.4646 18.7295L95.9964 19.1229L95.6858 17.9638C95.4768 18.4615 95.1774 18.8896 94.7876 19.248C94.3949 19.5961 93.9411 19.8392 93.4259 19.9773C92.7459 20.1595 92.0821 20.1551 91.4347 19.9642C90.7844 19.763 90.2182 19.4012 89.7359 18.8789C89.2536 18.3566 88.9089 17.7091 88.7019 16.9363C88.4948 16.1636 88.4696 15.4305 88.6261 14.737C88.7826 14.0435 89.0935 13.4522 89.5587 12.9632C90.0213 12.4638 90.5925 12.123 91.2725 11.9408C91.8083 11.7972 92.3411 11.787 92.871 11.91C93.4009 12.033 93.8901 12.2719 94.3385 12.6266L94.0031 11.3748L95.394 11.0021ZM93.3088 18.551C93.7621 18.4295 94.1439 18.2058 94.454 17.8797C94.7642 17.5536 94.9685 17.1621 95.0669 16.705C95.1625 16.2377 95.1427 15.7516 95.0074 15.2467C94.8722 14.7419 94.6477 14.3162 94.3339 13.9695C94.0174 13.6126 93.6434 13.3705 93.2117 13.2433C92.7801 13.116 92.3376 13.1131 91.8842 13.2345C91.4309 13.356 91.0543 13.5784 90.7544 13.9017C90.4545 14.225 90.2568 14.6203 90.1611 15.0876C90.0627 15.5447 90.0812 16.0256 90.2165 16.5305C90.3517 17.0353 90.5776 17.4662 90.8941 17.8231C91.2078 18.1698 91.5754 18.4081 91.9967 18.5381C92.4181 18.6682 92.8554 18.6725 93.3088 18.551Z" fill="white"/>
</svg>
