<svg width="45" height="45" viewBox="0 0 45 45" fill="none" xmlns="http://www.w3.org/2000/svg">
<path d="M22.5 0C10.08 0 0 10.08 0 22.5C0 34.92 10.08 45 22.5 45C34.92 45 45 34.92 45 22.5C45 10.08 34.92 0 22.5 0ZM16.4025 32.1525L8.325 24.075C8.11669 23.8667 7.95145 23.6194 7.83871 23.3472C7.72598 23.0751 7.66795 22.7833 7.66795 22.4888C7.66795 22.1942 7.72598 21.9024 7.83871 21.6303C7.95145 21.3581 8.11669 21.1108 8.325 20.9025C8.53331 20.6942 8.78061 20.529 9.05278 20.4162C9.32495 20.3035 9.61666 20.2455 9.91125 20.2455C10.2058 20.2455 10.4976 20.3035 10.7697 20.4162C11.0419 20.529 11.2892 20.6942 11.4975 20.9025L18 27.3825L33.48 11.9025C33.9007 11.4818 34.4713 11.2455 35.0662 11.2455C35.6612 11.2455 36.2318 11.4818 36.6525 11.9025C37.0732 12.3232 37.3095 12.8938 37.3095 13.4887C37.3095 14.0837 37.0732 14.6543 36.6525 15.075L19.575 32.1525C19.3668 32.3611 19.1196 32.5266 18.8474 32.6395C18.5752 32.7524 18.2834 32.8105 17.9888 32.8105C17.6941 32.8105 17.4023 32.7524 17.1301 32.6395C16.8579 32.5266 16.6107 32.3611 16.4025 32.1525Z" fill="#1AF457"/>
</svg>
