<svg width="277" height="41" viewBox="0 0 277 41" fill="none" xmlns="http://www.w3.org/2000/svg">
<path d="M275.196 2.58548L275.919 3.2755C276.225 2.95541 276.283 2.47288 276.064 2.08899C275.844 1.7051 275.398 1.51103 274.968 1.61178L275.196 2.58548ZM260.966 4.8877C260.428 5.01352 260.094 5.55146 260.22 6.08922C260.346 6.62698 260.884 6.96093 261.422 6.83512L260.966 4.8877ZM265.276 11.5412C264.895 11.9409 264.91 12.5739 265.31 12.955C265.71 13.3361 266.343 13.321 266.724 12.9212L265.276 11.5412ZM274.968 1.61178L260.966 4.8877L261.422 6.83512L275.423 3.55919L274.968 1.61178ZM274.472 1.89547L265.276 11.5412L266.724 12.9212L275.919 3.2755L274.472 1.89547ZM0.652934 0.962109C0.064996 1.77101 0.0654843 1.77137 0.0661783 1.77188C0.066684 1.77224 0.0675838 1.77289 0.068595 1.77362C0.0706032 1.77508 0.0734334 1.77712 0.0770556 1.77975C0.0843284 1.785 0.09484 1.79258 0.108576 1.80244C0.136048 1.82217 0.176447 1.85105 0.229658 1.88879C0.336094 1.96426 0.493824 2.07517 0.702136 2.21915C1.11874 2.5071 1.73763 2.92734 2.55295 3.46094C4.18353 4.52814 6.59995 6.04893 9.75518 7.87199C16.0654 11.5179 25.3323 16.3739 37.1799 21.2283C60.8738 30.9367 94.9015 40.6438 136.245 40.6438L136.245 38.6438C95.2156 38.6438 61.4471 29.0101 37.9382 19.3776C26.1844 14.5616 16.9983 9.74714 10.7558 6.14027C7.63463 4.33692 5.24977 2.8357 3.64819 1.78749C2.84742 1.26339 2.24249 0.852576 1.8393 0.573899C1.6377 0.434562 1.48655 0.328263 1.38657 0.257357C1.33657 0.22191 1.29938 0.195308 1.27507 0.177848C1.26291 0.169124 1.25398 0.16268 1.24827 0.158562C1.24543 0.156498 1.24338 0.155021 1.24214 0.15413C1.24153 0.153679 1.24121 0.153451 1.24091 0.153225C1.2408 0.153142 1.24087 0.15321 0.652934 0.962109ZM136.245 40.6438C177.581 40.6438 212.44 31.3462 236.965 22.0497C249.229 17.4011 258.912 12.7512 265.535 9.26048C268.846 7.51505 271.393 6.05919 273.114 5.03786C273.975 4.52719 274.629 4.12512 275.07 3.84978C275.29 3.71211 275.457 3.60612 275.57 3.53407C275.626 3.49805 275.669 3.47051 275.698 3.45174C275.712 3.44235 275.723 3.43516 275.731 3.43019C275.735 3.42771 275.738 3.42578 275.74 3.42442C275.741 3.42373 275.742 3.42313 275.742 3.42279C275.743 3.42233 275.744 3.42201 275.196 2.58548C274.648 1.74896 274.648 1.74893 274.648 1.74903C274.647 1.74925 274.647 1.74949 274.646 1.74994C274.645 1.75083 274.643 1.75228 274.64 1.75428C274.633 1.75829 274.624 1.76453 274.611 1.77295C274.585 1.78981 274.545 1.81542 274.492 1.84951C274.385 1.9177 274.224 2.0198 274.01 2.15355C273.582 2.42106 272.941 2.81517 272.093 3.31781C270.399 4.32312 267.882 5.76244 264.602 7.49122C258.042 10.9489 248.433 15.5636 236.256 20.1796C211.899 29.4123 177.283 38.6438 136.245 38.6438L136.245 40.6438Z" fill="#E41F1F"/>
</svg>
