<svg width="183" height="37" viewBox="0 0 183 37" fill="none" xmlns="http://www.w3.org/2000/svg">
<path d="M182 1.5L182.913 1.90906C183.079 1.5381 183.004 1.1034 182.723 0.809396C182.442 0.515388 182.012 0.420593 181.633 0.569592L182 1.5ZM165.133 7.06959C164.62 7.27202 164.367 7.85267 164.57 8.36652C164.772 8.88037 165.353 9.13283 165.867 8.93041L165.133 7.06959ZM174.587 15.5909C174.362 16.0949 174.587 16.6866 175.091 16.9125C175.595 17.1384 176.187 16.913 176.413 16.4091L174.587 15.5909ZM181.633 0.569592L165.133 7.06959L165.867 8.93041L182.367 2.43041L181.633 0.569592ZM181.087 1.09094L174.587 15.5909L176.413 16.4091L182.913 1.90906L181.087 1.09094ZM1.5 11.5C0.913653 12.3101 0.914122 12.3104 0.914711 12.3108C0.915065 12.3111 0.915772 12.3116 0.916481 12.3121C0.917899 12.3131 0.919793 12.3145 0.922161 12.3162C0.926897 12.3196 0.933533 12.3243 0.942068 12.3304C0.959137 12.3426 0.9838 12.3601 1.01605 12.3828C1.08054 12.4281 1.17537 12.494 1.30045 12.5793C1.55061 12.7498 1.92179 12.9974 2.41331 13.3114C3.39635 13.9395 4.86083 14.8332 6.80138 15.9063C10.6825 18.0527 16.4681 20.9171 24.1154 23.8103C39.4111 29.5973 62.1499 35.4977 91.9832 35.9999L92.0168 34.0001C62.4347 33.5023 39.9235 27.6527 24.8231 21.9397C17.2722 19.0829 11.5733 16.2598 7.76927 14.1562C5.86728 13.1043 4.4391 12.2324 3.49011 11.6261C3.01562 11.3229 2.66094 11.0862 2.42675 10.9266C2.30965 10.8468 2.22268 10.7863 2.16592 10.7464C2.13754 10.7264 2.11671 10.7116 2.10345 10.7022C2.09681 10.6975 2.09207 10.6941 2.08922 10.692C2.0878 10.691 2.08684 10.6903 2.08636 10.69C2.08612 10.6898 2.08612 10.6898 2.086 10.6897C2.08611 10.6898 2.08635 10.6899 1.5 11.5ZM91.9832 35.9999C121.896 36.5033 144.57 28.0688 159.772 19.496C167.371 15.2107 173.103 10.8914 176.94 7.63769C178.858 6.01068 180.304 4.64959 181.273 3.69165C181.757 3.21265 182.123 2.83438 182.369 2.57398C182.492 2.44377 182.585 2.34303 182.648 2.27388C182.68 2.23931 182.704 2.21263 182.721 2.19412C182.729 2.18487 182.736 2.17766 182.74 2.17252C182.742 2.16995 182.744 2.1679 182.746 2.16638C182.746 2.16561 182.747 2.16486 182.747 2.16448C182.748 2.16386 182.748 2.16337 182 1.5C181.252 0.836632 181.252 0.836405 181.252 0.83631C181.252 0.836453 181.252 0.836489 181.252 0.836774C181.251 0.837345 181.25 0.838437 181.249 0.840046C181.246 0.843265 181.241 0.848554 181.234 0.855879C181.221 0.870529 181.201 0.893324 181.173 0.923997C181.116 0.985344 181.031 1.0782 180.915 1.20044C180.684 1.44491 180.335 1.80688 179.867 2.26929C178.931 3.19416 177.523 4.52057 175.646 6.11231C171.892 9.29607 166.263 13.5393 158.79 17.754C143.846 26.1812 121.519 34.4967 92.0168 34.0001L91.9832 35.9999Z" fill="#E41F1F"/>
</svg>
