<svg width="152" height="135" viewBox="0 0 152 135" fill="none" xmlns="http://www.w3.org/2000/svg">
<path d="M1.83735 128.96L1.47835 129.894C1.0534 129.73 0.792507 129.3 0.84369 128.848C0.894874 128.396 1.24521 128.035 1.69594 127.971L1.83735 128.96ZM13.9744 126.217C14.5211 126.138 15.0276 126.518 15.1057 127.065C15.1838 127.612 14.8039 128.118 14.2572 128.196L13.9744 126.217ZM13.5977 132.413C14.1132 132.611 14.3703 133.189 14.172 133.705C13.9738 134.22 13.3952 134.478 12.8797 134.279L13.5977 132.413ZM1.69594 127.971L13.9744 126.217L14.2572 128.196L1.97877 129.95L1.69594 127.971ZM2.19636 128.027L13.5977 132.413L12.8797 134.279L1.47835 129.894L2.19636 128.027ZM115.855 1.78677C116.466 0.994755 116.466 0.995183 116.467 0.995795C116.467 0.996246 116.468 0.997046 116.47 0.99795C116.472 0.999756 116.475 1.0023 116.48 1.00559C116.488 1.01216 116.5 1.02169 116.516 1.03415C116.548 1.05906 116.595 1.09569 116.656 1.14384C116.777 1.24015 116.955 1.38256 117.185 1.56954C117.644 1.94346 118.308 2.49571 119.136 3.21385C120.791 4.64992 123.1 6.75069 125.728 9.41683C130.98 14.7445 137.526 22.3521 142.654 31.4445C147.782 40.5349 151.522 51.1626 151.08 62.5073C150.638 73.8782 145.999 85.8647 134.552 97.6448L133.118 96.251C144.255 84.7889 148.661 73.2592 149.082 62.4295C149.504 51.5736 145.926 41.3163 140.912 32.427C135.9 23.5396 129.481 16.0727 124.304 10.8209C121.718 8.19722 119.447 6.13196 117.825 4.72443C117.014 4.02078 116.366 3.48184 115.922 3.12002C115.699 2.93913 115.529 2.80254 115.414 2.7118C115.357 2.66644 115.313 2.63254 115.285 2.6103C115.271 2.59919 115.26 2.59098 115.253 2.58572C115.25 2.58309 115.248 2.58119 115.246 2.58004C115.245 2.57946 115.245 2.57914 115.245 2.57885C115.244 2.57872 115.244 2.57878 115.855 1.78677ZM134.552 97.6448C111.715 121.147 78.4184 129.183 50.9778 131.383C37.2389 132.484 24.9216 132.126 16.0391 131.493C11.5969 131.176 8.0113 130.791 5.53362 130.484C4.29472 130.331 3.33264 130.197 2.67877 130.101C2.35183 130.053 2.10193 130.015 1.93299 129.988C1.84852 129.975 1.78428 129.965 1.74078 129.958C1.71903 129.954 1.70246 129.952 1.69114 129.95C1.68547 129.949 1.68112 129.948 1.67809 129.948C1.67658 129.947 1.67529 129.947 1.67453 129.947C1.67357 129.947 1.67296 129.947 1.83735 128.96C2.00175 127.974 2.00179 127.974 2.00216 127.974C2.00273 127.974 2.00342 127.974 2.00455 127.975C2.0068 127.975 2.01037 127.975 2.01525 127.976C2.02499 127.978 2.03998 127.98 2.06013 127.984C2.10044 127.99 2.16145 128 2.24264 128.013C2.40504 128.038 2.64822 128.075 2.96826 128.122C3.60835 128.216 4.55585 128.348 5.7794 128.499C8.22662 128.802 11.7774 129.184 16.1812 129.498C24.9907 130.126 37.2037 130.48 50.818 129.389C78.0841 127.203 110.786 119.233 133.118 96.251L134.552 97.6448Z" fill="#E41F1F"/>
</svg>
