<svg width="116" height="26" viewBox="0 0 116 26" fill="none" xmlns="http://www.w3.org/2000/svg">
<path d="M115 1L115.876 1.4821C116.066 1.13673 116.036 0.711932 115.798 0.397352C115.56 0.0827731 115.16 -0.0628853 114.776 0.0254025L115 1ZM103.869 2.53194C103.33 2.65563 102.994 3.19225 103.118 3.7305C103.242 4.26876 103.778 4.60483 104.317 4.48113L103.869 2.53194ZM109.198 9.46982C108.932 9.95369 109.108 10.5618 109.592 10.828C110.076 11.0943 110.684 10.9179 110.95 10.434L109.198 9.46982ZM114.776 0.0254025L103.869 2.53194L104.317 4.48113L115.224 1.9746L114.776 0.0254025ZM114.124 0.517903L109.198 9.46982L110.95 10.434L115.876 1.4821L114.124 0.517903ZM1 11.3842C0.433412 12.2082 0.43379 12.2085 0.43424 12.2088C0.434487 12.209 0.435011 12.2093 0.435505 12.2097C0.436493 12.2103 0.437772 12.2112 0.439341 12.2123C0.442478 12.2144 0.446776 12.2174 0.452231 12.2211C0.463141 12.2285 0.47868 12.239 0.498824 12.2525C0.539111 12.2795 0.597821 12.3184 0.674758 12.3686C0.82863 12.469 1.05543 12.6142 1.35361 12.798C1.94994 13.1655 2.83191 13.6873 3.98713 14.3133C6.29743 15.5651 9.70168 17.234 14.1008 18.9182C22.899 22.2865 35.6811 25.7175 51.6495 25.991L51.6838 23.9913C35.9856 23.7224 23.4343 20.3499 14.8159 17.0504C10.5066 15.4006 7.18174 13.7695 4.93995 12.5548C3.81913 11.9475 2.96933 11.4444 2.4029 11.0953C2.1197 10.9208 1.90737 10.7848 1.76746 10.6935C1.69751 10.6479 1.64566 10.6134 1.61212 10.591C1.59535 10.5797 1.58315 10.5715 1.57555 10.5663C1.57175 10.5637 1.56911 10.5619 1.56761 10.5609C1.56686 10.5604 1.5664 10.5601 1.56623 10.56C1.56615 10.5599 1.56624 10.56 1.56619 10.56C1.56636 10.5601 1.56659 10.5602 1 11.3842ZM51.6495 25.991C67.7229 26.2663 83.7298 20.1849 95.6632 14.0895C101.641 11.0362 106.622 7.9663 110.109 5.65888C111.853 4.50489 113.225 3.54085 114.163 2.8639C114.632 2.5254 114.992 2.25863 115.236 2.0757C115.358 1.98423 115.451 1.91372 115.514 1.86569C115.546 1.84167 115.57 1.82327 115.586 1.81068C115.594 1.80438 115.601 1.79954 115.605 1.79617C115.607 1.79449 115.609 1.79317 115.61 1.79223C115.611 1.79175 115.611 1.79133 115.612 1.79109C115.612 1.79076 115.612 1.79051 115 1C114.388 0.209487 114.388 0.209432 114.388 0.209471C114.387 0.209608 114.387 0.20974 114.387 0.210014C114.386 0.210561 114.385 0.21148 114.383 0.212766C114.38 0.21534 114.375 0.219385 114.368 0.224879C114.353 0.235866 114.331 0.252648 114.302 0.275033C114.243 0.319805 114.155 0.386992 114.037 0.475083C113.802 0.65127 113.451 0.911049 112.992 1.24233C112.074 1.90494 110.725 2.85335 109.006 3.9909C105.566 6.26657 100.651 9.29618 94.7534 12.3084C82.9368 18.3442 67.2771 24.2584 51.6838 23.9913L51.6495 25.991Z" fill="#E41F1F"/>
</svg>
