<svg width="165" height="21" viewBox="0 0 165 21" fill="none" xmlns="http://www.w3.org/2000/svg">
<path d="M1 1.00029L0.250168 1.66191C-0.0099335 1.36713 -0.0731964 0.947298 0.0885163 0.588967C0.250214 0.230635 0.606873 0.000292902 1 0.000292817L1 1.00029ZM11.5 0.000291947C12.0523 0.000291876 12.5 0.448007 12.5 1.00029C12.5 1.55258 12.0523 2.00029 11.5 2.00029L11.5 0.000291947ZM9.24983 8.83868C9.61523 9.2528 9.57574 9.88474 9.16162 10.2501C8.7475 10.6155 8.11557 10.576 7.75017 10.1619L9.24983 8.83868ZM1 0.000292817L11.5 0.000291947L11.5 2.00029L1 2.00029L1 0.000292817ZM1.74983 0.338672L9.24983 8.83868L7.75017 10.1619L0.250168 1.66191L1.74983 0.338672ZM163.5 1.00021C164.08 1.81449 164.08 1.81484 164.079 1.81525C164.079 1.81547 164.078 1.81595 164.078 1.8164C164.077 1.8173 164.075 1.81846 164.073 1.81987C164.069 1.8227 164.063 1.82655 164.056 1.83142C164.043 1.84115 164.023 1.85493 163.997 1.87264C163.946 1.90804 163.871 1.95913 163.772 2.02487C163.575 2.15637 163.282 2.34652 162.894 2.58715C162.117 3.06843 160.957 3.75168 159.405 4.57164C156.3 6.21161 151.63 8.39825 145.331 10.6097C132.732 15.0331 113.626 19.5527 87.5171 19.9999L87.4829 18.0002C113.374 17.5568 132.268 13.0765 144.669 8.72261C150.87 6.54541 155.45 4.39909 158.47 2.80325C159.981 2.0053 161.102 1.34493 161.84 0.887074C162.21 0.658143 162.484 0.479838 162.663 0.360276C162.753 0.300496 162.819 0.255401 162.862 0.226006C162.883 0.211309 162.899 0.200537 162.908 0.193817C162.913 0.190457 162.916 0.18811 162.918 0.186792C162.919 0.186133 162.92 0.185731 162.92 0.185589C162.92 0.185517 162.92 0.185605 162.92 0.185569C162.92 0.185722 162.92 0.18594 163.5 1.00021ZM87.5171 19.9999C61.3928 20.4474 39.6626 15.9261 24.4584 11.2907C16.8557 8.97285 10.8826 6.62574 6.80487 4.85528C4.76591 3.97002 3.20056 3.22879 2.14204 2.7073C1.61278 2.44654 1.21017 2.24071 0.938415 2.09925C0.802536 2.02851 0.699356 1.97388 0.62941 1.93651C0.594437 1.91783 0.567764 1.90346 0.549454 1.89356C0.540314 1.88862 0.533249 1.88478 0.52829 1.88208C0.525818 1.88074 0.523865 1.87967 0.52243 1.87889C0.521728 1.8785 0.521042 1.87813 0.520691 1.87794C0.520142 1.87764 0.51973 1.87741 1 1.00029C1.48027 0.123171 1.48012 0.123089 1.4801 0.12308C1.48027 0.123172 1.48038 0.123234 1.48073 0.123419C1.4814 0.123788 1.48261 0.124443 1.48433 0.125382C1.48778 0.127259 1.49332 0.130271 1.50095 0.134398C1.5162 0.142652 1.53981 0.155369 1.5717 0.172401C1.63548 0.206467 1.73238 0.257793 1.86188 0.325202C2.12088 0.460022 2.51027 0.659166 3.02592 0.913209C4.05725 1.42131 5.59346 2.14894 7.60138 3.02074C11.6174 4.76441 17.5193 7.08425 25.0416 9.37766C40.0874 13.9648 61.6072 18.4434 87.4829 18.0002L87.5171 19.9999Z" fill="white"/>
</svg>
