<svg width="74" height="30" viewBox="0 0 74 30" fill="none" xmlns="http://www.w3.org/2000/svg">
<path d="M23.4 10.55L18.525 24H14.775L11.75 15.65L8.625 24H4.875L0.025 10.55H3.7L6.875 19.65L10.175 10.55H13.475L16.675 19.65L19.95 10.55H23.4ZM38.0219 17.325C38.0219 17.375 37.9969 17.725 37.9469 18.375H27.7719C27.9552 19.2083 28.3885 19.8667 29.0719 20.35C29.7552 20.8333 30.6052 21.075 31.6219 21.075C32.3219 21.075 32.9385 20.975 33.4719 20.775C34.0219 20.5583 34.5302 20.225 34.9969 19.775L37.0719 22.025C35.8052 23.475 33.9552 24.2 31.5219 24.2C30.0052 24.2 28.6635 23.9083 27.4969 23.325C26.3302 22.725 25.4302 21.9 24.7969 20.85C24.1635 19.8 23.8469 18.6083 23.8469 17.275C23.8469 15.9583 24.1552 14.775 24.7719 13.725C25.4052 12.6583 26.2635 11.8333 27.3469 11.25C28.4469 10.65 29.6719 10.35 31.0219 10.35C32.3385 10.35 33.5302 10.6333 34.5969 11.2C35.6635 11.7667 36.4969 12.5833 37.0969 13.65C37.7135 14.7 38.0219 15.925 38.0219 17.325ZM31.0469 13.3C30.1635 13.3 29.4219 13.55 28.8219 14.05C28.2219 14.55 27.8552 15.2333 27.7219 16.1H34.3469C34.2135 15.25 33.8469 14.575 33.2469 14.075C32.6469 13.5583 31.9135 13.3 31.0469 13.3ZM53.7434 14.9C54.7434 15.2167 55.5267 15.75 56.0934 16.5C56.66 17.2333 56.9434 18.1417 56.9434 19.225C56.9434 20.7583 56.3434 21.9417 55.1434 22.775C53.96 23.5917 52.2267 24 49.9434 24H40.8934V6.5H49.4434C51.5767 6.5 53.21 6.90833 54.3434 7.725C55.4934 8.54167 56.0684 9.65 56.0684 11.05C56.0684 11.9 55.86 12.6583 55.4434 13.325C55.0434 13.9917 54.4767 14.5167 53.7434 14.9ZM44.9184 9.55V13.675H48.9434C49.9434 13.675 50.7017 13.5 51.2184 13.15C51.735 12.8 51.9934 12.2833 51.9934 11.6C51.9934 10.9167 51.735 10.4083 51.2184 10.075C50.7017 9.725 49.9434 9.55 48.9434 9.55H44.9184ZM49.6434 20.95C50.71 20.95 51.51 20.775 52.0434 20.425C52.5934 20.075 52.8684 19.5333 52.8684 18.8C52.8684 17.35 51.7934 16.625 49.6434 16.625H44.9184V20.95H49.6434ZM65.1596 10.35C67.2429 10.35 68.8429 10.85 69.9596 11.85C71.0762 12.8333 71.6346 14.325 71.6346 16.325V24H67.9846V22.325C67.2512 23.575 65.8846 24.2 63.8846 24.2C62.8512 24.2 61.9512 24.025 61.1846 23.675C60.4346 23.325 59.8596 22.8417 59.4596 22.225C59.0596 21.6083 58.8596 20.9083 58.8596 20.125C58.8596 18.875 59.3262 17.8917 60.2596 17.175C61.2096 16.4583 62.6679 16.1 64.6346 16.1H67.7346C67.7346 15.25 67.4762 14.6 66.9596 14.15C66.4429 13.6833 65.6679 13.45 64.6346 13.45C63.9179 13.45 63.2096 13.5667 62.5096 13.8C61.8262 14.0167 61.2429 14.3167 60.7596 14.7L59.3596 11.975C60.0929 11.4583 60.9679 11.0583 61.9846 10.775C63.0179 10.4917 64.0762 10.35 65.1596 10.35ZM64.8596 21.575C65.5262 21.575 66.1179 21.425 66.6346 21.125C67.1512 20.8083 67.5179 20.35 67.7346 19.75V18.375H65.0596C63.4596 18.375 62.6596 18.9 62.6596 19.95C62.6596 20.45 62.8512 20.85 63.2346 21.15C63.6346 21.4333 64.1762 21.575 64.8596 21.575Z" fill="#232323"/>
<line y1="6.5" x2="37" y2="6.5" stroke="#E41F1F" stroke-width="3"/>
</svg>
